<mxfile host="app.diagrams.net" modified="2022-05-09T12:06:30.713Z" agent="5.0 (Windows NT 10.0; Win64; x64) AppleWebKit/537.36 (KHTML, like Gecko) Chrome/101.0.4951.54 Safari/537.36" etag="FttAGJzGfXpSiObZ4hv_" version="18.0.2" type="github">
  <diagram id="5ZIUty4Jpn5ncGmMn6Zg" name="Page-1">
    <mxGraphModel dx="694" dy="360" grid="1" gridSize="10" guides="1" tooltips="1" connect="1" arrows="1" fold="1" page="1" pageScale="1" pageWidth="850" pageHeight="1100" math="0" shadow="0">
      <root>
        <mxCell id="0" />
        <mxCell id="1" parent="0" />
        <mxCell id="m-Xaaek5bjQjRCb_y9Ei-1" value="" style="rounded=1;whiteSpace=wrap;html=1;" vertex="1" parent="1">
          <mxGeometry x="200" y="480" width="320" height="250" as="geometry" />
        </mxCell>
        <mxCell id="m-Xaaek5bjQjRCb_y9Ei-3" value="" style="rounded=1;whiteSpace=wrap;html=1;" vertex="1" parent="1">
          <mxGeometry x="230" y="450" width="170" height="60" as="geometry" />
        </mxCell>
        <mxCell id="m-Xaaek5bjQjRCb_y9Ei-4" value="" style="rounded=0;whiteSpace=wrap;html=1;" vertex="1" parent="1">
          <mxGeometry x="240" y="561" width="250" height="100" as="geometry" />
        </mxCell>
        <mxCell id="m-Xaaek5bjQjRCb_y9Ei-5" value="" style="rounded=1;whiteSpace=wrap;html=1;" vertex="1" parent="1">
          <mxGeometry x="255" y="551" width="120" height="40" as="geometry" />
        </mxCell>
      </root>
    </mxGraphModel>
  </diagram>
</mxfile>
